<?xml version="1.0" encoding="UTF-8" standalone="no"?>
<!DOCTYPE svg PUBLIC "-//W3C//DTD SVG 1.1//EN"
 "http://www.w3.org/Graphics/SVG/1.1/DTD/svg11.dtd">
<!-- Generated by graphviz version 2.38.0 (20140413.2041)
 -->
<!-- Title: G Pages: 1 -->
<svg width="959pt" height="880pt"
 viewBox="0.00 0.00 959.35 879.57" xmlns="http://www.w3.org/2000/svg" xmlns:xlink="http://www.w3.org/1999/xlink">
<g id="graph0" class="graph" transform="scale(1 1) rotate(0) translate(4 875.568)">
<title>G</title>
<polygon fill="white" stroke="none" points="-4,4 -4,-875.568 955.352,-875.568 955.352,4 -4,4"/>
<text text-anchor="middle" x="475.676" y="-856.368" font-family="Times,serif" font-size="14.00">G</text>
<!-- n1 -->
<g id="node1" class="node"><title>n1</title>
<g id="a_node1"><a xlink:title="[[string &quot;add = nn.CAddTable()({x1, mult})&quot;]]:1">
<ellipse fill="none" stroke="black" cx="350.176" cy="-161.865" rx="130.714" ry="55.3091"/>
<text text-anchor="middle" x="350.176" y="-185.665" font-family="Times,serif" font-size="14.00">Node1</text>
<text text-anchor="start" x="265.646" y="-171.665" font-family="Times,serif" font-size="14.00">input = {Tensor[2],Tensor[2]}</text>
<text text-anchor="start" x="265.646" y="-157.665" font-family="Times,serif" font-size="14.00">mapindex = {Node3,Node4}</text>
<text text-anchor="start" x="265.646" y="-143.665" font-family="Times,serif" font-size="14.00">gradOutput = {Tensor[2]}</text>
<text text-anchor="middle" x="350.176" y="-129.665" font-family="Times,serif" font-size="14.00">module = nn.CAddTable</text>
</a>
</g>
</g>
<!-- n2 -->
<g id="node2" class="node"><title>n2</title>
<g id="a_node2"><a xlink:title="[[C]]:&#45;1">
<ellipse fill="none" stroke="black" cx="350.176" cy="-35.3553" rx="114.56" ry="35.2113"/>
<text text-anchor="middle" x="350.176" y="-45.1553" font-family="Times,serif" font-size="14.00">Node2</text>
<text text-anchor="start" x="277.014" y="-31.1553" font-family="Times,serif" font-size="14.00">input = {Tensor[2]}</text>
<text text-anchor="middle" x="350.176" y="-17.1553" font-family="Times,serif" font-size="14.00">gradOutput = {Tensor[2]}</text>
</a>
</g>
</g>
<!-- n1&#45;&gt;n2 -->
<g id="edge1" class="edge"><title>n1&#45;&gt;n2</title>
<path fill="none" stroke="black" d="M350.176,-106.615C350.176,-98.1371 350.176,-89.4574 350.176,-81.2194"/>
<polygon fill="black" stroke="black" points="353.676,-81.0692 350.176,-71.0692 346.676,-81.0693 353.676,-81.0692"/>
</g>
<!-- n3 -->
<g id="node3" class="node"><title>n3</title>
<g id="a_node3"><a xlink:title="[[string &quot;x1 = nn.Identity()()&quot;]]:1">
<ellipse fill="none" stroke="black" cx="206.176" cy="-308.174" rx="114.56" ry="45.011"/>
<text text-anchor="middle" x="206.176" y="-324.974" font-family="Times,serif" font-size="14.00">Node3</text>
<text text-anchor="start" x="133.014" y="-310.974" font-family="Times,serif" font-size="14.00">input = {Tensor[2]}</text>
<text text-anchor="start" x="133.014" y="-296.974" font-family="Times,serif" font-size="14.00">gradOutput = {Tensor[2]}</text>
<text text-anchor="middle" x="206.176" y="-282.974" font-family="Times,serif" font-size="14.00">module = nn.Identity</text>
</a>
</g>
</g>
<!-- n3&#45;&gt;n1 -->
<g id="edge2" class="edge"><title>n3&#45;&gt;n1</title>
<path fill="none" stroke="black" d="M247.441,-265.821C261.582,-251.649 277.671,-235.525 292.851,-220.313"/>
<polygon fill="black" stroke="black" points="295.632,-222.481 300.218,-212.931 290.677,-217.537 295.632,-222.481"/>
</g>
<!-- n4 -->
<g id="node4" class="node"><title>n4</title>
<g id="a_node4"><a xlink:title="[[string &quot;mult = nn.CMulTable()({x2, x3})&quot;]]:1">
<ellipse fill="none" stroke="black" cx="495.176" cy="-308.174" rx="130.714" ry="55.3091"/>
<text text-anchor="middle" x="495.176" y="-331.974" font-family="Times,serif" font-size="14.00">Node4</text>
<text text-anchor="start" x="410.646" y="-317.974" font-family="Times,serif" font-size="14.00">input = {Tensor[2],Tensor[2]}</text>
<text text-anchor="start" x="410.646" y="-303.974" font-family="Times,serif" font-size="14.00">mapindex = {Node6,Node7}</text>
<text text-anchor="start" x="410.646" y="-289.974" font-family="Times,serif" font-size="14.00">gradOutput = {Tensor[2]}</text>
<text text-anchor="middle" x="495.176" y="-275.974" font-family="Times,serif" font-size="14.00">module = nn.CMulTable</text>
</a>
</g>
</g>
<!-- n4&#45;&gt;n1 -->
<g id="edge3" class="edge"><title>n4&#45;&gt;n1</title>
<path fill="none" stroke="black" d="M444.869,-257.106C432.835,-245.13 419.898,-232.254 407.57,-219.986"/>
<polygon fill="black" stroke="black" points="409.951,-217.417 400.394,-212.844 405.013,-222.379 409.951,-217.417"/>
</g>
<!-- n5 -->
<g id="node5" class="node"><title>n5</title>
<g id="a_node5"><a xlink:title="[[C]]:&#45;1&#45;1">
<ellipse fill="none" stroke="black" cx="181.176" cy="-444.583" rx="181.352" ry="45.011"/>
<text text-anchor="middle" x="181.176" y="-461.383" font-family="Times,serif" font-size="14.00">Node5</text>
<text text-anchor="start" x="61.0652" y="-447.383" font-family="Times,serif" font-size="14.00">input = {{Tensor[2],Tensor[2],Tensor[3]}}</text>
<text text-anchor="start" x="61.0652" y="-433.383" font-family="Times,serif" font-size="14.00">selectindex = 1</text>
<text text-anchor="middle" x="181.176" y="-419.383" font-family="Times,serif" font-size="14.00">gradOutput = {Tensor[2]}</text>
</a>
</g>
</g>
<!-- n5&#45;&gt;n3 -->
<g id="edge4" class="edge"><title>n5&#45;&gt;n3</title>
<path fill="none" stroke="black" d="M189.431,-399.2C191.565,-387.73 193.885,-375.254 196.1,-363.345"/>
<polygon fill="black" stroke="black" points="199.542,-363.982 197.93,-353.51 192.66,-362.701 199.542,-363.982"/>
</g>
<!-- n6 -->
<g id="node6" class="node"><title>n6</title>
<g id="a_node6"><a xlink:title="[[string &quot;x2 = nn.Identity()()&quot;]]:1">
<ellipse fill="none" stroke="black" cx="495.176" cy="-444.583" rx="114.56" ry="45.011"/>
<text text-anchor="middle" x="495.176" y="-461.383" font-family="Times,serif" font-size="14.00">Node6</text>
<text text-anchor="start" x="422.014" y="-447.383" font-family="Times,serif" font-size="14.00">input = {Tensor[2]}</text>
<text text-anchor="start" x="422.014" y="-433.383" font-family="Times,serif" font-size="14.00">gradOutput = {Tensor[2]}</text>
<text text-anchor="middle" x="495.176" y="-419.383" font-family="Times,serif" font-size="14.00">module = nn.Identity</text>
</a>
</g>
</g>
<!-- n6&#45;&gt;n4 -->
<g id="edge5" class="edge"><title>n6&#45;&gt;n4</title>
<path fill="none" stroke="black" d="M495.176,-399.2C495.176,-390.956 495.176,-382.192 495.176,-373.493"/>
<polygon fill="black" stroke="black" points="498.676,-373.345 495.176,-363.345 491.676,-373.345 498.676,-373.345"/>
</g>
<!-- n7 -->
<g id="node7" class="node"><title>n7</title>
<g id="a_node7"><a xlink:title="[[string &quot;x3 = nn.Linear(3, 2)()&quot;]]:1">
<ellipse fill="none" stroke="black" cx="759.176" cy="-444.583" rx="120.136" ry="45.011"/>
<text text-anchor="middle" x="759.176" y="-461.383" font-family="Times,serif" font-size="14.00">Node7</text>
<text text-anchor="start" x="682.275" y="-447.383" font-family="Times,serif" font-size="14.00">input = {Tensor[3]}</text>
<text text-anchor="start" x="682.275" y="-433.383" font-family="Times,serif" font-size="14.00">gradOutput = {Tensor[2]}</text>
<text text-anchor="middle" x="759.176" y="-419.383" font-family="Times,serif" font-size="14.00">module = nn.Linear(3 &#45;&gt; 2)</text>
</a>
</g>
</g>
<!-- n7&#45;&gt;n4 -->
<g id="edge6" class="edge"><title>n7&#45;&gt;n4</title>
<path fill="none" stroke="black" d="M688.776,-407.74C657.501,-391.817 620.279,-372.867 586.868,-355.856"/>
<polygon fill="black" stroke="black" points="588.053,-352.532 577.554,-351.114 584.877,-358.77 588.053,-352.532"/>
</g>
<!-- n8 -->
<g id="node8" class="node"><title>n8</title>
<g id="a_node8"><a xlink:title="[[C]]:&#45;1&#45;mnode">
<ellipse fill="none" stroke="black" cx="390.176" cy="-697.602" rx="205.83" ry="45.011"/>
<text text-anchor="middle" x="390.176" y="-714.402" font-family="Times,serif" font-size="14.00">Node8</text>
<text text-anchor="start" x="252.572" y="-700.402" font-family="Times,serif" font-size="14.00">input = {{Tensor[2],Tensor[2],Tensor[3]}}</text>
<text text-anchor="start" x="252.572" y="-686.402" font-family="Times,serif" font-size="14.00">gradOutput = {{Tensor[2],Tensor[2],Tensor[3]}}</text>
<text text-anchor="middle" x="390.176" y="-672.402" font-family="Times,serif" font-size="14.00">nSplitOutputs = 3</text>
</a>
</g>
</g>
<!-- n8&#45;&gt;n5 -->
<g id="edge7" class="edge"><title>n8&#45;&gt;n5</title>
<path fill="none" stroke="black" d="M258.278,-662.641C235.863,-651.326 215.058,-636.294 200.176,-616.347 175.662,-583.489 171.992,-536.695 173.852,-500.398"/>
<polygon fill="black" stroke="black" points="177.374,-500.191 174.55,-489.979 170.389,-499.723 177.374,-500.191"/>
</g>
<!-- n9 -->
<g id="node9" class="node"><title>n9</title>
<g id="a_node9"><a xlink:title="[[C]]:&#45;1&#45;2">
<ellipse fill="none" stroke="black" cx="390.176" cy="-571.092" rx="181.352" ry="45.011"/>
<text text-anchor="middle" x="390.176" y="-587.892" font-family="Times,serif" font-size="14.00">Node9</text>
<text text-anchor="start" x="270.065" y="-573.892" font-family="Times,serif" font-size="14.00">input = {{Tensor[2],Tensor[2],Tensor[3]}}</text>
<text text-anchor="start" x="270.065" y="-559.892" font-family="Times,serif" font-size="14.00">selectindex = 2</text>
<text text-anchor="middle" x="390.176" y="-545.892" font-family="Times,serif" font-size="14.00">gradOutput = {Tensor[2]}</text>
</a>
</g>
</g>
<!-- n8&#45;&gt;n9 -->
<g id="edge11" class="edge"><title>n8&#45;&gt;n9</title>
<path fill="none" stroke="black" d="M390.176,-652.003C390.176,-643.768 390.176,-635.084 390.176,-626.595"/>
<polygon fill="black" stroke="black" points="393.676,-626.38 390.176,-616.38 386.676,-626.38 393.676,-626.38"/>
</g>
<!-- n10 -->
<g id="node10" class="node"><title>n10</title>
<g id="a_node10"><a xlink:title="[[C]]:&#45;1&#45;3">
<ellipse fill="none" stroke="black" cx="770.176" cy="-571.092" rx="181.352" ry="45.011"/>
<text text-anchor="middle" x="770.176" y="-587.892" font-family="Times,serif" font-size="14.00">Node10</text>
<text text-anchor="start" x="650.065" y="-573.892" font-family="Times,serif" font-size="14.00">input = {{Tensor[2],Tensor[2],Tensor[3]}}</text>
<text text-anchor="start" x="650.065" y="-559.892" font-family="Times,serif" font-size="14.00">selectindex = 3</text>
<text text-anchor="middle" x="770.176" y="-545.892" font-family="Times,serif" font-size="14.00">gradOutput = {Tensor[3]}</text>
</a>
</g>
</g>
<!-- n8&#45;&gt;n10 -->
<g id="edge12" class="edge"><title>n8&#45;&gt;n10</title>
<path fill="none" stroke="black" d="M502.903,-659.666C549.987,-644.239 604.702,-626.311 652.317,-610.71"/>
<polygon fill="black" stroke="black" points="653.64,-613.96 662.053,-607.52 651.46,-607.308 653.64,-613.96"/>
</g>
<!-- n9&#45;&gt;n6 -->
<g id="edge8" class="edge"><title>n9&#45;&gt;n6</title>
<path fill="none" stroke="black" d="M426.9,-526.545C435.383,-516.486 444.471,-505.709 453.16,-495.406"/>
<polygon fill="black" stroke="black" points="455.939,-497.539 459.71,-487.638 450.588,-493.027 455.939,-497.539"/>
</g>
<!-- n10&#45;&gt;n7 -->
<g id="edge9" class="edge"><title>n10&#45;&gt;n7</title>
<path fill="none" stroke="black" d="M766.267,-525.844C765.53,-517.505 764.752,-508.693 763.991,-500.083"/>
<polygon fill="black" stroke="black" points="767.476,-499.761 763.11,-490.108 760.503,-500.377 767.476,-499.761"/>
</g>
<!-- n11 -->
<g id="node11" class="node"><title>n11</title>
<g id="a_node11"><a xlink:title="[[C]]:&#45;1">
<ellipse fill="none" stroke="black" cx="390.176" cy="-814.212" rx="205.83" ry="35.2113"/>
<text text-anchor="middle" x="390.176" y="-824.012" font-family="Times,serif" font-size="14.00">Node11</text>
<text text-anchor="start" x="252.572" y="-810.012" font-family="Times,serif" font-size="14.00">input = {Tensor[2],Tensor[2],Tensor[3]}</text>
<text text-anchor="middle" x="390.176" y="-796.012" font-family="Times,serif" font-size="14.00">gradOutput = {{Tensor[2],Tensor[2],Tensor[3]}}</text>
</a>
</g>
</g>
<!-- n11&#45;&gt;n8 -->
<g id="edge10" class="edge"><title>n11&#45;&gt;n8</title>
<path fill="none" stroke="black" d="M390.176,-778.826C390.176,-770.769 390.176,-761.989 390.176,-753.289"/>
<polygon fill="black" stroke="black" points="393.676,-753.162 390.176,-743.162 386.676,-753.162 393.676,-753.162"/>
</g>
</g>
</svg>
